<?xml version="1.0" standalone="no"?>
<!DOCTYPE svg PUBLIC "-//W3C//DTD SVG 20010904//EN"
 "http://www.w3.org/TR/2001/REC-SVG-20010904/DTD/svg10.dtd">
<svg version="1.0" xmlns="http://www.w3.org/2000/svg"
 width="260.000000pt" height="260.000000pt" viewBox="0 0 260.000000 260.000000"
 preserveAspectRatio="xMidYMid meet">
<metadata>
Created by potrace 1.14, written by Peter Selinger 2001-2017
</metadata>
<g transform="translate(0.000000,260.000000) scale(0.100000,-0.100000)"
fill="#000000" stroke="none">
<path d="M2345 2400 c-33 -27 -62 -50 -66 -50 -4 0 -25 -24 -47 -52 -22 -29
-91 -105 -153 -169 -63 -64 -143 -148 -179 -188 -36 -39 -117 -124 -180 -190
-63 -65 -144 -150 -180 -188 -36 -39 -93 -100 -127 -136 -35 -37 -63 -71 -63
-76 0 -5 -39 -41 -86 -80 l-85 -72 -35 30 c-19 17 -52 40 -74 51 -21 11 -51
37 -66 57 -16 21 -53 63 -83 94 -31 31 -85 89 -121 128 -36 39 -92 100 -125
135 -67 71 -162 173 -214 229 -19 20 -37 37 -42 37 -4 0 -20 19 -33 43 -33 56
-62 82 -109 97 -21 6 -51 23 -67 36 -15 14 -31 21 -34 16 -23 -37 -26 -166
-26 -1038 -1 -809 1 -939 14 -959 10 -15 34 -27 78 -37 53 -13 118 -14 408 -7
190 4 632 8 982 8 686 1 776 6 802 45 12 19 14 189 17 1133 4 1081 3 1111 -15
1132 -11 12 -22 21 -25 21 -4 0 -33 -22 -66 -50z"/>
</g>
</svg>
